<svg width="276" height="66" fill="none" xmlns="http://www.w3.org/2000/svg">
  <path d="M67.2964 19.7183h10.7988v-3.1557H61c0-1.1537.4626-2.0359 1.3879-2.6467.9479-.6108 2.2004-.9161 3.7576-.9161h12.559c.6771 0 1.3203.0904 1.9296.2714s1.1397.4298 1.591.7465c.474.2941.8463.656 1.1171 1.0858.2709.4299.4063.9049.4063 1.4252v9.9421c0 .5429-.1354 1.0293-.4063 1.4591-.2708.4298-.6431.8031-1.1171 1.1198-.4513.294-.9817.5316-1.591.7125-.6093.1584-1.2638.2376-1.9634.2376H66.1455c-.7222 0-1.3992-.0679-2.0311-.2036-.6094-.1358-1.151-.3394-1.6249-.6108-.4739-.2941-.8463-.656-1.1171-1.0858-.2483-.4525-.3724-.9841-.3724-1.5949h17.0952v-3.1896H67.2964v-3.5968ZM103.329 29.9998c-.699 0-1.286-.0566-1.76-.1697-.452-.1131-.858-.2488-1.219-.4072-.338-.1583-.643-.3393-.9138-.5429-.2709-.2036-.5417-.3959-.8125-.5769l-7.1766-6.1417v4.5809c0 .6107-.1467 1.131-.4401 1.5608-.2708.4072-.6431.7352-1.1171.9841-.4739.2488-1.0268.4298-1.6587.5429-.6093.1131-1.2525.1697-1.9296.1697h-.5077v-17h5.6532v7.499l7.3797-7.499h6.2622l-7.7178 7.974 10.2908 9.026h-4.333ZM132.444 26.5726c0 .6108-.136 1.1311-.407 1.5609-.27.4072-.643.7578-1.117 1.0519-.451.2714-.993.475-1.625.6108-.632.1357-1.309.2036-2.031.2036h-12.525c-.7 0-1.354-.0792-1.963-.2376-.61-.1809-1.151-.4185-1.625-.7125-.452-.3167-.813-.6787-1.083-1.0859-.249-.4298-.373-.9161-.373-1.4591V16.4608c0-.4976.124-.9614.373-1.3912.27-.4524.631-.8257 1.083-1.1197.474-.3167 1.015-.5543 1.625-.7126.609-.1584 1.263-.2375 1.963-.2375h12.525c1.535 0 2.776.3053 3.724.9161.97.5882 1.456 1.4591 1.456 2.6128v10.0439Zm-5.654-10.01h-11.442v9.9421h11.442v-9.9421ZM151.584 29.9998v-6.6847h-11.442v6.6847h-5.653v-13.539c0-.4976.135-.9501.406-1.3573.271-.4298.632-.7917 1.083-1.0858.474-.3167 1.016-.5655 1.625-.7465.61-.181 1.264-.2714 1.964-.2714h.575v6.7864h11.476v-6.7864h5.619v17h-5.653ZM189.768 26.5726c0 .7239-.192 1.3121-.576 1.7645-.361.4524-.823.803-1.388 1.0519-.541.2488-1.151.4185-1.828.509-.654.0678-1.275.1018-1.861.1018h-11.849v-.3394c0-.7917.203-1.4025.61-1.8323.428-.4524.914-.7691 1.455-.9501.565-.2036 1.14-.3167 1.727-.3393.609-.0226 1.083-.034 1.422-.034h6.635v-3.1896h-11.916c-.339 0-.802.0226-1.388.0679-.587.0226-1.174-.0226-1.761-.1357-.564-.1358-1.049-.3959-1.455-.7805-.406-.4072-.61-1.0293-.61-1.8662v-7.5669h.474c.361 0 .835.0226 1.422.0679.61.0452 1.185.1583 1.727.3393.564.1809 1.049.475 1.455.8822.406.4072.61.9954.61 1.7645v3.6307h11.442v-6.7185h5.653v13.5728ZM214.561 19.7183c0 1.199-.576 2.1038-1.727 2.7146-1.151.5881-2.696.8822-4.637.8822h-8.463c0-.3619.056-.7578.169-1.1876.135-.4524.327-.8483.575-1.1876.271-.3393.621-.6221 1.05-.8483.429-.2489.936-.3733 1.523-.3733h5.823v-3.1557h-11.408v9.4671c0 1.5835-.486 2.6693-1.456 3.2575-.496.2941-1.061.4863-1.693.5768-.631.0905-1.275.1358-1.929.1358h-.576v-17h17.57c1.534 0 2.775.3053 3.723.9161.971.6108 1.456 1.493 1.456 2.6467v3.1557ZM216.606 16.5626c0-1.1537.474-2.0359 1.422-2.6467.97-.6108 2.223-.9161 3.758-.9161h22.24c1.535 0 2.776.3053 3.724.9161.97.6108 1.456 1.493 1.456 2.6467v5.7685c0 1.1989-.576 2.1038-1.727 2.7146-1.151.5881-2.697.8822-4.638.8822h-7.108v.1018c0 1.5835-.486 2.6693-1.456 3.2575-.497.2941-1.061.4863-1.693.5768-.632.0905-1.275.1358-1.929.1358h-.576v-4.0719h-7.109c-1.94 0-3.486-.2941-4.637-.8822-1.151-.6108-1.727-1.5157-1.727-2.7146v-5.7685Zm19.127 5.7685h7.785v-5.7685h-7.785v5.7685Zm-13.44 0h7.786v-5.7685h-7.786v5.7685ZM274 26.5726c0 .6108-.135 1.1311-.406 1.5609-.271.4072-.643.7578-1.117 1.0519-.452.2714-.993.475-1.625.6108-.632.1357-1.309.2036-2.031.2036h-12.526c-.699 0-1.354-.0792-1.963-.2376-.609-.1809-1.151-.4185-1.625-.7125-.451-.3167-.812-.6787-1.083-1.0859-.248-.4298-.372-.9161-.372-1.4591V16.4608c0-.4976.124-.9614.372-1.3912.271-.4524.632-.8257 1.083-1.1197.474-.3167 1.016-.5543 1.625-.7126.609-.1584 1.264-.2375 1.963-.2375h12.526c1.534 0 2.776.3053 3.723.9161.971.5882 1.456 1.4591 1.456 2.6128v10.0439Zm-5.653-10.01h-11.442v9.9421h11.442v-9.9421Z" fill="#2B2E34"/>
  <path d="M65.862 52.1428c-1.1093 0-2.0713-.312-2.886-.936-.806-.624-1.3173-1.378-1.534-2.262h1.274c.2167.598.6067 1.092 1.17 1.482.572.3813 1.2307.572 1.976.572.9273 0 1.7203-.2904 2.379-.871.6587-.5894 1.0487-1.3347 1.17-2.236h-4.758v-1.118h4.745c-.1387-.884-.533-1.6077-1.183-2.171-.65-.572-1.4343-.858-2.353-.858-.7453 0-1.404.195-1.976.585-.5633.3813-.9533.8753-1.17 1.482h-1.274c.2167-.884.728-1.638 1.534-2.262.806-.6327 1.768-.949 2.886-.949 1.3607 0 2.496.4593 3.406 1.378.9187.91 1.378 2.041 1.378 3.393 0 1.352-.4593 2.4873-1.378 3.406-.91.91-2.0453 1.365-3.406 1.365Zm6.4234-.143v-6.5h1.118v2.678h3.549v-2.678h1.118v6.5h-1.118v-2.808h-3.549v2.808h-1.118Zm10.6655.13c-.9447 0-1.729-.3207-2.353-.962-.6153-.6414-.923-1.4474-.923-2.418 0-.9794.299-1.7854.897-2.418.6067-.6414 1.4083-.962 2.405-.962 1.0053 0 1.794.3553 2.366 1.066.572.7106.8233 1.5816.754 2.613h-5.291c.0173.5893.234 1.0833.65 1.482.416.39.9187.585 1.508.585.884 0 1.5123-.364 1.885-1.092h1.144c-.1647.6066-.5157 1.1093-1.053 1.508-.5373.3986-1.2003.598-1.989.598Zm1.274-5.304c-.3553-.312-.7843-.468-1.287-.468-.5027 0-.9533.1516-1.352.455-.39.3033-.6327.754-.728 1.352h4.056c-.104-.5894-.3337-1.0357-.689-1.339Zm4.6033 7.891h-1.118v-9.217h1.118v1.001c.2254-.3294.5417-.598.949-.806.416-.2167.8624-.325 1.339-.325.9014 0 1.6554.3293 2.262.988.6154.6586.923 1.456.923 2.392 0 .936-.3076 1.7333-.923 2.392-.6066.6586-1.3606.988-2.262.988-.4766 0-.923-.104-1.339-.312-.4073-.2167-.7236-.4897-.949-.819v3.718Zm.533-4.29c.416.4506.9447.676 1.586.676.6414 0 1.17-.2254 1.586-.676.416-.4507.624-1.0097.624-1.677 0-.6674-.208-1.2264-.624-1.677-.416-.4507-.9446-.676-1.586-.676-.6413 0-1.17.2253-1.586.676-.416.4506-.624 1.0096-.624 1.677 0 .6673.208 1.2263.624 1.677Zm6.5502 1.573v-6.5h4.069v1.027h-2.951v5.473h-1.118Zm8.0276.13c-.979 0-1.794-.325-2.444-.975-.641-.6587-.962-1.4604-.962-2.405 0-.9447.321-1.742.962-2.392.65-.6587 1.465-.988 2.444-.988.971 0 1.777.3293 2.418.988.65.65.975 1.4473.975 2.392 0 .9446-.325 1.7463-.975 2.405-.641.65-1.447.975-2.418.975Zm-1.638-1.716c.425.4506.971.676 1.638.676.667 0 1.209-.2254 1.625-.676.416-.4507.624-1.0054.624-1.664 0-.6587-.208-1.2134-.624-1.664-.416-.4507-.958-.676-1.625-.676s-1.213.2253-1.638.676c-.416.4506-.624 1.0053-.624 1.664 0 .6586.208 1.2133.624 1.664Zm9.522 1.716c-.98 0-1.79-.325-2.431-.975-.642-.6587-.962-1.4604-.962-2.405 0-.9447.32-1.742.962-2.392.641-.6587 1.451-.988 2.431-.988.806 0 1.503.2253 2.093.676.589.442.983 1.0226 1.183 1.742h-1.196c-.156-.4247-.416-.7627-.78-1.014-.364-.2514-.798-.377-1.3-.377-.668 0-1.214.2253-1.638.676-.416.4506-.624 1.0096-.624 1.677 0 .6673.208 1.2263.624 1.677.424.4506.97.676 1.638.676.502 0 .936-.1257 1.3-.377.364-.2514.624-.5894.78-1.014h1.196c-.191.7193-.581 1.3043-1.17 1.755-.59.442-1.292.663-2.106.663Zm7.876 0c-1.022 0-1.841-.338-2.457-1.014-.606-.676-.91-1.5644-.91-2.665v-.663c0-1.5947.286-2.7864.858-3.575.572-.7974 1.508-1.3217 2.808-1.573l2.418-.442v1.066l-2.171.403c-.927.1646-1.599.4766-2.015.936-.407.4593-.663 1.1353-.767 2.028.564-.754 1.361-1.131 2.392-1.131.98 0 1.764.312 2.353.936.598.624.897 1.3866.897 2.288 0 .9533-.325 1.7593-.975 2.418-.641.6586-1.451.988-2.431.988Zm-1.612-1.703c.416.442.954.663 1.612.663.659 0 1.201-.221 1.625-.663.425-.442.637-1.0097.637-1.703 0-.65-.212-1.1787-.637-1.586-.416-.416-.949-.624-1.599-.624-.667 0-1.213.2123-1.638.637-.416.416-.624.9403-.624 1.573 0 .6933.208 1.261.624 1.703Zm9.386 1.703c-.944 0-1.729-.3207-2.353-.962-.615-.6414-.923-1.4474-.923-2.418 0-.9794.299-1.7854.897-2.418.607-.6414 1.409-.962 2.405-.962 1.006 0 1.794.3553 2.366 1.066.572.7106.824 1.5816.754 2.613h-5.291c.018.5893.234 1.0833.65 1.482.416.39.919.585 1.508.585.884 0 1.513-.364 1.885-1.092h1.144c-.164.6066-.515 1.1093-1.053 1.508-.537.3986-1.2.598-1.989.598Zm1.274-5.304c-.355-.312-.784-.468-1.287-.468-.502 0-.953.1516-1.352.455-.39.3033-.632.754-.728 1.352h4.056c-.104-.5894-.333-1.0357-.689-1.339Zm4.604 7.891h-1.118v-9.217h1.118v1.001c.225-.3294.541-.598.949-.806.416-.2167.862-.325 1.339-.325.901 0 1.655.3293 2.262.988.615.6586.923 1.456.923 2.392 0 .936-.308 1.7333-.923 2.392-.607.6586-1.361.988-2.262.988-.477 0-.923-.104-1.339-.312-.408-.2167-.724-.4897-.949-.819v3.718Zm.533-4.29c.416.4506.944.676 1.586.676.641 0 1.17-.2254 1.586-.676.416-.4507.624-1.0097.624-1.677 0-.6674-.208-1.2264-.624-1.677-.416-.4507-.945-.676-1.586-.676-.642 0-1.17.2253-1.586.676-.416.4506-.624 1.0096-.624 1.677 0 .6673.208 1.2263.624 1.677Zm9.319 1.703c-.945 0-1.729-.3207-2.353-.962-.615-.6414-.923-1.4474-.923-2.418 0-.9794.299-1.7854.897-2.418.607-.6414 1.408-.962 2.405-.962 1.005 0 1.794.3553 2.366 1.066.572.7106.823 1.5816.754 2.613h-5.291c.017.5893.234 1.0833.65 1.482.416.39.919.585 1.508.585.884 0 1.512-.364 1.885-1.092h1.144c-.165.6066-.516 1.1093-1.053 1.508-.537.3986-1.2.598-1.989.598Zm1.274-5.304c-.355-.312-.784-.468-1.287-.468-.503 0-.953.1516-1.352.455-.39.3033-.633.754-.728 1.352h4.056c-.104-.5894-.334-1.0357-.689-1.339Zm3.485 5.174v-6.5h4.069v1.027h-2.951v5.473h-1.118Zm7.832.13c-.901 0-1.659-.3294-2.275-.988-.606-.6587-.91-1.456-.91-2.392 0-.936.304-1.7334.91-2.392.616-.6587 1.374-.988 2.275-.988.477 0 .919.1083 1.326.325.416.208.737.4766.962.806v-1.001h1.118v6.5h-1.118v-1.001c-.225.3293-.546.6023-.962.819-.407.208-.849.312-1.326.312Zm.169-1.027c.642 0 1.17-.2254 1.586-.676.416-.4507.624-1.0097.624-1.677 0-.6674-.208-1.2264-.624-1.677-.416-.4507-.944-.676-1.586-.676-.65 0-1.183.2253-1.599.676-.416.4506-.624 1.0096-.624 1.677 0 .6673.208 1.2263.624 1.677.416.4506.949.676 1.599.676Zm10.932 1.027c-.858 0-1.586-.2774-2.184-.832-.589-.5547-.936-1.2567-1.04-2.106h-1.248v2.808h-1.118v-6.5h1.118v2.691h1.261c.13-.8234.485-1.4994 1.066-2.028.589-.5287 1.304-.793 2.145-.793.945 0 1.725.325 2.34.975.615.65.923 1.4516.923 2.405 0 .9533-.308 1.755-.923 2.405-.615.65-1.395.975-2.34.975Zm-1.521-1.716c.399.442.906.663 1.521.663.615 0 1.122-.221 1.521-.663.399-.4507.598-1.0054.598-1.664 0-.6587-.199-1.209-.598-1.651-.399-.4507-.906-.676-1.521-.676-.615 0-1.122.221-1.521.663-.39.442-.585.9966-.585 1.664 0 .6586.195 1.2133.585 1.664Zm15.908.559v2.665h-1.053v-1.638h-8.476v-6.5h1.118v5.473h2.587v-5.473h1.118v5.473h2.587v-5.473h1.118v5.473h1.001Zm2.504 1.027h-1.001v-6.5h1.118v4.771l3.666-4.771h.988v6.5h-1.105v-4.771l-3.666 4.771Zm9.665.13c-.945 0-1.729-.3207-2.353-.962-.615-.6414-.923-1.4474-.923-2.418 0-.9794.299-1.7854.897-2.418.607-.6414 1.408-.962 2.405-.962 1.005 0 1.794.3553 2.366 1.066.572.7106.823 1.5816.754 2.613h-5.291c.017.5893.234 1.0833.65 1.482.416.39.919.585 1.508.585.884 0 1.512-.364 1.885-1.092h1.144c-.165.6066-.516 1.1093-1.053 1.508-.537.3986-1.2.598-1.989.598Zm1.274-5.304c-.355-.312-.784-.468-1.287-.468-.503 0-.953.1516-1.352.455-.39.3033-.633.754-.728 1.352h4.056c-.104-.5894-.334-1.0357-.689-1.339Zm10.662 5.174v-5.473h-2.067v-1.027h5.343v1.027h-2.158v5.473h-1.118Zm7.132.13c-.944 0-1.729-.3207-2.353-.962-.615-.6414-.923-1.4474-.923-2.418 0-.9794.299-1.7854.897-2.418.607-.6414 1.409-.962 2.405-.962 1.006 0 1.794.3553 2.366 1.066.572.7106.824 1.5816.754 2.613h-5.291c.018.5893.234 1.0833.65 1.482.416.39.919.585 1.508.585.884 0 1.513-.364 1.885-1.092h1.144c-.164.6066-.515 1.1093-1.053 1.508-.537.3986-1.2.598-1.989.598Zm1.274-5.304c-.355-.312-.784-.468-1.287-.468-.502 0-.953.1516-1.352.455-.39.3033-.632.754-.728 1.352h4.056c-.104-.5894-.333-1.0357-.689-1.339Zm7.6 5.174-1.976-2.457-1.976 2.457h-1.391l2.665-3.289-2.444-3.211h1.352l1.794 2.353 1.781-2.353h1.365l-2.457 3.211 2.665 3.289h-1.378Zm2.525 0v-6.5h1.118v2.678h3.549v-2.678h1.118v6.5h-1.118v-2.808h-3.549v2.808h-1.118Zm10.783.13c-.98 0-1.794-.325-2.444-.975-.642-.6587-.962-1.4604-.962-2.405 0-.9447.32-1.742.962-2.392.65-.6587 1.464-.988 2.444-.988.97 0 1.776.3293 2.418.988.65.65.975 1.4473.975 2.392 0 .9446-.325 1.7463-.975 2.405-.642.65-1.448.975-2.418.975Zm-1.638-1.716c.424.4506.97.676 1.638.676.667 0 1.209-.2254 1.625-.676.416-.4507.624-1.0054.624-1.664 0-.6587-.208-1.2134-.624-1.664-.416-.4507-.958-.676-1.625-.676-.668 0-1.214.2253-1.638.676-.416.4506-.624 1.0053-.624 1.664 0 .6586.208 1.2133.624 1.664Zm6.339 1.677c-.295 0-.49-.013-.585-.039v-1.001c.061.0173.199.026.416.026.269 0 .468-.091.598-.273.13-.1907.195-.5244.195-1.001v-4.303h5.018v6.5h-1.118v-5.473h-2.782v3.51c0 .6673-.16 1.1786-.481 1.534-.321.3466-.741.52-1.261.52Zm10.647.039c-.979 0-1.794-.325-2.444-.975-.641-.6587-.962-1.4604-.962-2.405 0-.9447.321-1.742.962-2.392.65-.6587 1.465-.988 2.444-.988.971 0 1.777.3293 2.418.988.65.65.975 1.4473.975 2.392 0 .9446-.325 1.7463-.975 2.405-.641.65-1.447.975-2.418.975Zm-1.638-1.716c.425.4506.971.676 1.638.676.668 0 1.209-.2254 1.625-.676.416-.4507.624-1.0054.624-1.664 0-.6587-.208-1.2134-.624-1.664-.416-.4507-.957-.676-1.625-.676-.667 0-1.213.2253-1.638.676-.416.4506-.624 1.0053-.624 1.664 0 .6586.208 1.2133.624 1.664Zm6.636 1.586v-6.5h4.069v1.027h-2.951v5.473h-1.118Zm6.346 0h-1.001v-6.5h1.118v4.771l3.666-4.771h.988v6.5h-1.105v-4.771l-3.666 4.771Zm7.896 0h-1.001v-6.5h1.118v4.771l3.666-4.771h.988v6.5h-1.105v-4.771l-3.666 4.771Z" fill="#555"/>
  <path d="M22.7896 61.9934c-1.7455-5.2748 4.7913-18.6501 8.2779-24.6785-5.6349 9.1547-8.4952 15.5876-9.7122 20.0012-1.6791 6.0893 4.9189 7.643 7.7303 1.9866.523-1.0523.9352-2.0508 1.2119-2.8353l-3.7861 1.5071c-1.1294 2.2104-2.9518 3.6003-3.7218 4.0189Z" fill="url(#a)"/>
  <path d="M22.7911 61.9951c1.381-.7606 3.0197-2.6049 3.7102-3.9992 1.6321-.6338 2.0373-.7345 2.3511-.7979-.8902 2.1637-2.2223 4.0435-3.3877 5.241-.8757.8997-2.28.7482-2.6736-.4439Z" fill="url(#b)"/>
  <path d="M41.6755 31.047c-1.319-5.0365-5.0094-6.7363-5.1997-4.8476-1.5218 4.281-3.9314 8.4571-4.946 10.01-8.4025 15.9671-4.65 20.8385-2.9168 21.0903 15.1677-5.9431 15.0704-19.999 13.0625-26.2527Z" fill="url(#c)"/>
  <path d="M18.5858 23.1182c-.0252.1588-.0518.3114-.0795.4574.0276-.1531.0541-.3056.0795-.4574.7239-4.5656.2934-14.25466-6.8721-19.97722-.4444.94898-.419 3.78325 1.9679 9.04692l-2.2853 3.7326C9.25902 12.1246 5.49241 2.3818 8.79349.167525 11.8116-1.33634 21.2192 7.36297 18.5858 23.1182Z" fill="url(#d)"/>
  <path d="M9.34675 3.02122c.74205-.49695 2.23065-.11825 2.47805.19235-.6926 2.48477.9641 6.95133 1.9123 9.00133l-1.7788 2.9297C8.49556 7.09401 8.5429 3.76665 9.34675 3.02122Z" fill="url(#e)"/>
  <path d="M27.4615 28.8717c1.0138-14.4321-6.1251-24.11631-9.8212-27.15441C34.9257 11.3722 40.7678 25.1002 41.5281 30.7574c-2.3317-7.9452-10.3493-4.5676-14.0666-1.8857Z" fill="url(#f)"/>
  <path opacity=".25" d="M38.4054 26.3615c-3.0205-8.619-12.2917-16.87689-16.5497-19.80388 5.6004 8.28278 6.02 17.70728 5.6634 22.17038 4.5307-3.0515 7.9287-3.7366 10.8863-2.3665Z" fill="url(#g)"/>
  <path d="M36.7988 26.6982c4.1456 5.5031 8.5846 18.828-6.8243 28.1034 1.6795-8.6747 5.3956-26.4398 6.8243-28.1034Z" fill="url(#h)"/>
  <path d="M28.6222 57.2977c-3.0904-2.9608.5062-14.9624 2.6737-20.6415-7.4168 13.5277-9.0052 19.9035-8.7393 22.0639 3.7342-.3829 3.5547-.6567 6.0656-1.4224Z" fill="#27569F"/>
  <path d="M16.5457 57.9244c-.7133-10.0403 4.0756-21.2537 6.5591-25.6053-16.81178 7.9717-21.48172 3.3215-21.71522 0-3.97369 16.9524 8.44835 24.1337 15.15612 25.6053Z" fill="url(#i)"/>
  <path d="M16.5373 56.2069c-.1895-9.4046 4.1467-19.8334 6.5674-23.8878C9.7804 38.2127 4.85481 37.1468 2.70776 34.827.889086 48.5704 11.2118 54.7858 16.5373 56.2069Z" fill="url(#j)"/>
  <path d="M1.40283 32.4307c1.98786-7.092 7.00848-14.4373 11.02247-17.2867 5.4029-1.7224 6.3288 4.1159 6.3076 7.2819-.8156 8.0039-4.5874 12.6854-6.3714 13.9307-7.19958 2.2163-10.76753-.5065-10.95867-3.9259Z" fill="url(#k)"/>
  <path d="m9.98981 17.3196 6.27439-8.57619c2.6082 3.97739 2.8496 10.59949 2.4669 13.47329-.8894-9.3062-6.1372-7.4244-8.74129-4.8971Z" fill="#148CCC"/>
  <defs>
    <linearGradient id="a" x1="25.8372" y1="37.3149" x2="23.0405" y2="65.9614" gradientUnits="userSpaceOnUse">
      <stop stop-color="#1EA99E"/>
      <stop offset=".359375" stop-color="#D0FEFA"/>
      <stop offset="1" stop-color="#1EA99E"/>
    </linearGradient>
    <linearGradient id="b" x1="27.8771" y1="57.6167" x2="22.4128" y2="64.728" gradientUnits="userSpaceOnUse">
      <stop stop-color="#188C83"/>
      <stop offset="1" stop-color="#fff" stop-opacity="0"/>
    </linearGradient>
    <linearGradient id="c" x1="37.7442" y1="26.0105" x2="28.7334" y2="57.2714" gradientUnits="userSpaceOnUse">
      <stop stop-color="#2D63C8"/>
      <stop offset="1" stop-color="#08A7FA"/>
    </linearGradient>
    <linearGradient id="e" x1="9.71777" y1="2.83486" x2="12.9603" y2="13.449" gradientUnits="userSpaceOnUse">
      <stop stop-color="#ADFFF8"/>
      <stop offset="1" stop-color="#1EA99E"/>
    </linearGradient>
    <linearGradient id="f" x1="29.6159" y1="-1.5513" x2="39.4231" y2="26.344" gradientUnits="userSpaceOnUse">
      <stop stop-color="#00AFFF"/>
      <stop offset="1" stop-color="#4268D5"/>
    </linearGradient>
    <linearGradient id="g" x1="32.4903" y1="16.7087" x2="27.5037" y2="21.3065" gradientUnits="userSpaceOnUse">
      <stop stop-color="#fff" stop-opacity=".73"/>
      <stop offset="1" stop-color="#fff" stop-opacity="0"/>
    </linearGradient>
    <linearGradient id="h" x1="40.6893" y1="42.0102" x2="35.3441" y2="40.2712" gradientUnits="userSpaceOnUse">
      <stop stop-color="#fff" stop-opacity=".18"/>
      <stop offset="1" stop-color="#fff" stop-opacity="0"/>
    </linearGradient>
    <linearGradient id="i" x1="23.1048" y1="32.3822" x2="4.50979" y2="52.1129" gradientUnits="userSpaceOnUse">
      <stop stop-color="#0D9FF4"/>
      <stop offset="1" stop-color="#2B67CB"/>
    </linearGradient>
    <linearGradient id="j" x1="4.41277" y1="46.8023" x2="10.8757" y2="40.9881" gradientUnits="userSpaceOnUse">
      <stop stop-color="#fff" stop-opacity=".25"/>
      <stop offset="1" stop-color="#fff" stop-opacity="0"/>
    </linearGradient>
    <linearGradient id="k" x1="15.4198" y1="15.5872" x2="5.51805" y2="37.0998" gradientUnits="userSpaceOnUse">
      <stop stop-color="#06AAFC"/>
      <stop offset="1" stop-color="#1B4CAA"/>
    </linearGradient>
    <radialGradient id="d" cx="0" cy="0" r="1" gradientUnits="userSpaceOnUse" gradientTransform="matrix(-4.7929 -9.39484 4.59761 -2.34553 14.2212 9.37259)">
      <stop stop-color="#2AAFA4"/>
      <stop offset=".558139" stop-color="#D0FDF9"/>
      <stop offset="1" stop-color="#2AAFA4"/>
    </radialGradient>
  </defs>
</svg>