<svg width="21" height="23" viewBox="0 0 21 23" fill="none" xmlns="http://www.w3.org/2000/svg">
  <path d="M15.2611 7.33331v.1H20.1222V21.2847c0 .3253-.1292.6372-.3591.8672-.23.23-.542.3592-.8672.3592H2.10419c-.32526 0-.63719-.1292-.86719-.3592-.22999-.23-.359198-.5419-.359198-.8672V7.43331H4.15002V8.6222H2.06669v12.7H18.9334v-12.7H15.2611V10.1111c0 .1576-.0626.3088-.1741.4203-.1115.1115-.2626.1741-.4203.1741s-.3089-.0626-.4203-.1741c-.1115-.1115-.1742-.2627-.1742-.4203V5.2847c0-.94742-.3763-1.85603-1.0462-2.52595-.67-.66992-1.5786-1.04628-2.526-1.04628-.94739 0-1.856.37636-2.52592 1.04628-.66992.66992-1.04628 1.57853-1.04628 2.52595v2.14861H12.4834V8.6222H6.9278v1.5236c0 .1577-.06263.3089-.17411.4203-.11148.1115-.26267.1741-.42033.1741-.15766 0-.30886-.0626-.42034-.1741-.11148-.1114-.17411-.2626-.17411-.4203V5.2847c0-.62524.12315-1.24436.36242-1.822.23927-.57765.58997-1.10251 1.03208-1.54462.44211-.44211.96697-.79281 1.54462-1.032078C9.25567.646734 9.87479.523584 10.5.523584c.6253 0 1.2444.12315 1.822.362418.5777.239268 1.1025.589968 1.5446 1.032078.4422.44211.7929.96697 1.0321 1.54462.2393.57764.3624 1.19676.3624 1.822v2.04861Z" fill="#fff" stroke="#fff" stroke-width=".2"/>
</svg>