<svg width="27" height="28" fill="none" xmlns="http://www.w3.org/2000/svg">
  <path d="M18.1158 9.6427V7.50504c0-.66612-.1312-1.32572-.3861-1.94113-.2549-.61542-.6285-1.1746-1.0996-1.64561-.471-.47102-1.0301-.84465-1.6456-1.09957-.6154-.25491-1.275-.38611-1.9411-.38611-.6661 0-1.3257.1312-1.9411.38611-.6154.25492-1.17462.62855-1.64564 1.09957-.47102.47101-.84465 1.03019-1.09956 1.64561-.25492.61541-.38612 1.27501-.38612 1.94113v5.07246c0 .1921.07635.3765.21224.5124.1359.1358.32021.2122.51239.2122.19219 0 .3765-.0764.5124-.2122.13589-.1359.21224-.3203.21224-.5124V11.092h5.79705V9.6427H9.42025V7.50504c0-.96092.38172-1.88249 1.06115-2.56196.6795-.67947 1.6011-1.0612 2.562-1.0612.9609 0 1.8825.38173 2.562 1.0612.6794.67947 1.0612 1.60104 1.0612 2.56196v5.03616c0 .1922.0763.3765.2122.5124.1359.1359.3202.2123.5124.2123.1922 0 .3765-.0764.5124-.2123.1359-.1359.2122-.3202.2122-.5124V11.092h3.6232v13.0433H4.34782V11.092h2.1739V9.6427H2.89856v14.5579c0 .367.14582.7191.40538.9786.25956.2596.61159.4054.97867.4054H21.8042c.3671 0 .7191-.1458.9787-.4054.2595-.2595.4053-.6116.4053-.9786V9.6427h-5.0724Z" fill="#2B2E34"/>
  <path fill-rule="evenodd" clip-rule="evenodd" d="M6.52168 9.6426v1.4493H4.34779v13.0433H21.739V11.0919h-3.6232v1.4492c0 .1922-.0764.3765-.2122.5124-.1359.1359-.3203.2123-.5124.2123-.1922 0-.3765-.0764-.5124-.2123-.1359-.1359-.2123-.3202-.2123-.5124V7.50494c0-.96092-.3817-1.88248-1.0612-2.56196-.6794-.67947-1.601-1.0612-2.5619-1.0612-.961 0-1.8825.38173-2.562 1.0612-.67947.67948-1.06119 1.60104-1.06119 2.56196V9.6426h5.79709v1.4493H9.42021v1.4855c0 .1921-.07635.3765-.21224.5124-.1359.1358-.32021.2122-.51239.2122-.19219 0-.3765-.0764-.51239-.2122-.1359-.1359-.21224-.3203-.21224-.5124V7.50494c0-.66612.1312-1.32572.38611-1.94113.25491-.61542.62855-1.17459 1.09956-1.64561.47102-.47102 1.03018-.84465 1.64558-1.09957.6155-.25491 1.275-.38611 1.9412-.38611.6661 0 1.3257.1312 1.9411.38611.6154.25492 1.1746.62855 1.6456 1.09957.471.47102.8447 1.03019 1.0996 1.64561.2549.61541.3861 1.27501.3861 1.94113V9.6426h5.0724v14.5579c0 .367-.1458.7191-.4054.9786-.2595.2596-.6116.4054-.9786.4054H4.28257c-.36707 0-.71911-.1458-.97867-.4054-.25956-.2595-.40538-.6116-.40538-.9786V9.6426h3.62316Zm11.69412-.1h5.0724v14.6579c0 .3935-.1563.771-.4347 1.0493-.2783.2783-.6557.4347-1.0493.4347H4.28257c-.39359 0-.77107-.1564-1.04938-.4347-.27831-.2783-.43467-.6558-.43467-1.0493V9.5426h3.82316v1.6493H4.44779v12.8433H21.639V11.1919h-3.4232v1.3492c0 .2187-.0869.4285-.2415.5831-.1547.1547-.3644.2416-.5831.2416-.2187 0-.4285-.0869-.5831-.2416-.1547-.1546-.2416-.3644-.2416-.5831V7.50494c0-.9344-.3712-1.83053-1.0319-2.49125-.6607-.66072-1.5568-1.03191-2.4912-1.03191-.9344 0-1.8306.37119-2.4913 1.03191-.6607.66072-1.03189 1.55685-1.03189 2.49125V9.5426h5.79709v1.6493H9.52021v1.3855c0 .2187-.08688.4284-.24153.5831-.15465.1546-.3644.2415-.5831.2415-.21871 0-.42846-.0869-.58311-.2415-.15464-.1547-.24152-.3644-.24152-.5831V7.50494c0-.67925.13378-1.35185.39372-1.9794s.64094-1.19775 1.12124-1.67805c.48031-.48031 1.05049-.8613 1.67809-1.12124.6275-.25994 1.3001-.39373 1.9794-.39373.6792 0 1.3518.13379 1.9794.39373.6275.25994 1.1977.64093 1.678 1.12124.4803.4803.8613 1.0505 1.1213 1.67805.2599.62755.3937 1.30015.3937 1.9794V9.5426Z" fill="#2B2E34"/>
</svg>