<svg width="20" height="20" viewBox="0 0 20 20" fill="none" xmlns="http://www.w3.org/2000/svg">
  <path d="M19.375 2.5h-7.8125c-1.5091 0-2.77184 1.07539-3.06223 2.5H7.23203c.30418-2.11738 2.13027-3.75 4.33047-3.75h7.8125c.3452 0 .625-.279844.625-.625S19.7202 0 19.375 0h-7.8125C8.67211 0 6.28434 2.19145 5.97242 5H5.6541C3.05336 5 .9375 7.11586.9375 9.7166v.9084H.625c-.345156 0-.625.2798-.625.625v2.5c0 .3452.279844.625.625.625H15c.3452 0 .625-.2798.625-.625v-2.5c0-.3452-.2798-.625-.625-.625h-.3125v-.9084C14.6875 7.11586 12.5716 5 9.9709 5H9.795c.258-.72746.9527-1.25 1.7675-1.25h7.8125c.3452 0 .625-.27984.625-.625s-.2798-.625-.625-.625Zm-5 10.625H1.25v-1.25h13.125v1.25Zm-.9375-3.4084v.9084h-11.25v-.9084c0-1.91148 1.55512-3.4666 3.4666-3.4666h4.31684c1.91146 0 3.46656 1.55512 3.46656 3.4666ZM7.8125 15c-.34516 0-.625.2798-.625.625v.8984c0 .3452.27984.625.625.625s.625-.2798.625-.625v-.8984c0-.3452-.27984-.625-.625-.625ZM11.5625 15c-.3452 0-.625.2798-.625.625v.8984c0 .3452.2798.625.625.625s.625-.2798.625-.625v-.8984c0-.3452-.2798-.625-.625-.625ZM9.6875 17.8516c-.34516 0-.625.2798-.625.625v.8984c0 .3452.27984.625.625.625.3452 0 .625-.2798.625-.625v-.8984c0-.3452-.2798-.625-.625-.625ZM13.75 17.8516c-.3452 0-.625.2798-.625.625v.8984c0 .3452.2798.625.625.625s.625-.2798.625-.625v-.8984c0-.3452-.2798-.625-.625-.625ZM4.0625 15c-.34516 0-.625.2798-.625.625v.8984c0 .3452.27984.625.625.625s.625-.2798.625-.625v-.8984c0-.3452-.27984-.625-.625-.625ZM5.9375 17.8516c-.34516 0-.625.2798-.625.625v.8984c0 .3452.27984.625.625.625s.625-.2798.625-.625v-.8984c0-.3452-.27984-.625-.625-.625ZM2.1875 17.8516c-.34516 0-.625.2798-.625.625v.8984c0 .3452.27984.625.625.625s.625-.2798.625-.625v-.8984c0-.3452-.27984-.625-.625-.625Z" fill="#2B2E34"/>
</svg>