<svg width="23" height="24" fill="none" xmlns="http://www.w3.org/2000/svg">
  <path d="M19.8455 10.0941h-.0569V8.7599C19.7886 4.47423 16.1565 1 11.676 1 7.19542 1 3.56333 4.47423 3.56333 8.7599v1.3342h-.34156c-1.25249 0-2.2203 1.0618-2.2203 2.2871v3.4035c-.031544 1.1875.94939 2.1747 2.19093 2.2049.00981.0002.01956.0004.02937.0005h2.10642c.29836-.0134.52888-.2557.51482-.5411a.4880736.4880736 0 0 0-.00245-.0307v-6.6708c0-.3267-.19925-.6535-.51237-.6535h-.62624V8.75985c0-3.68415 3.12239-6.67079 6.97405-6.67079 3.8516 0 6.974 2.98664 6.974 6.67079V10.094h-.6263c-.3131 0-.5124.3267-.5124.6535v6.6708c-.0317.2841.1833.539.4803.5694.0106.0011.0214.0019.0321.0023h.6547l-.0569.0817c-.8542 1.0858-2.1945 1.7218-3.6151 1.7153-.311-1.4586-1.7994-2.4-3.3244-2.1025-1.3041.2544-2.24432 1.3469-2.25484 2.6199.01558 1.4931 1.28554 2.6956 2.84654 2.6955.7728-.012 1.5093-.3153 2.0495-.8441.3644-.357.6032-.8139.6832-1.3069 1.779.0064 3.4567-.7909 4.5259-2.151l.5409-.7624c1.224-.0816 1.9926-.8168 1.9926-1.8787v-3.4035c0-1.1706-.9109-2.5592-2.2203-2.5592ZM4.70195 16.901H3.22177c-.61295-.0143-1.09776-.5011-1.08283-1.0874a1.33811 1.33811 0 0 1 .00115-.029v-3.4035c0-.6262.45543-1.198 1.08168-1.198h1.48018v5.7179Zm8.79575 4.4925c-.3154.3272-.7586.5146-1.2239.5174-.9262-.0141-1.6777-.721-1.708-1.6065-.0004-.8872.7513-1.6067 1.6788-1.6071.9275-.0003 1.6798.7186 1.6801 1.6058v.0013c.0237.4043-.1312.7995-.427 1.0891Zm7.4295-5.3366c0 .7351-.7401.8441-1.0817.8441H18.65v-5.7178h1.1955c.6263 0 1.0817.844 1.0817 1.4703v3.4034Z" fill="#2B2E34"/>
  <path fill-rule="evenodd" clip-rule="evenodd" d="m3.22107 17.9901-.02937-.0005c-1.24153-.0302-2.222471-1.0174-2.19092-2.2049v-3.4035c0-1.2253.9678-2.2871 2.22029-2.2871h.34156V8.75993c0-4.28567 3.6321-7.7599 8.11267-7.7599 4.4805 0 8.1126 3.47423 8.1126 7.7599v1.33417h.0569c1.3094 0 2.2203 1.3886 2.2203 2.5593v3.4034c0 1.0619-.7686 1.7971-1.9926 1.8787l-.5409.7624c-1.0692 1.3601-2.7469 2.1575-4.5259 2.151-.08.4931-.3188.95-.6832 1.307-.5402.5287-1.2767.832-2.0495.844-1.561.0001-2.83095-1.2024-2.84654-2.6955.01052-1.273.95074-2.3655 2.25484-2.6198 1.525-.2976 3.0134.6438 3.3244 2.1025 1.3592.0061 2.6448-.5757 3.5016-1.577.0387-.0453.0765-.0914.1135-.1384l.0569-.0816h-.6547c-.0107-.0005-.0215-.0013-.0321-.0024-.297-.0304-.512-.2853-.4803-.5694v-6.6708c0-.3268.1993-.6535.5124-.6535h.6263V8.75988c0-3.68416-3.1224-6.67079-6.974-6.67079-3.85166 0-6.97405 2.98663-6.97405 6.67079V10.094h.62624c.31312 0 .51237.3268.51237.6535v6.6708c.00115.0102.00196.0205.00245.0307.01406.2854-.21646.5277-.51482.5411H3.22107Zm-.03521.2194c-1.3526-.0331-2.438379-1.1108-2.405085-2.4277v-3.4006c0-1.3364 1.056225-2.50711 2.440295-2.50711h.12156V8.75993c0-4.41629 3.73991-7.979901 8.33267-7.979901 4.5927 0 8.3326 3.563611 8.3326 7.979901v1.12059c.6656.05284 1.2202.42538 1.6105.91748.4203.5301.6667 1.2175.6667 1.8554v3.4034c0 .5873-.2141 1.0957-.6061 1.4667-.3685.3489-.8805.5638-1.4863.6229l-.4879.6877c-1.0759 1.3686-2.7416 2.1866-4.5186 2.2328-.1122.4699-.3577.9013-.7098 1.2461-.5814.5692-1.3723.8941-2.2.9069h-.0034c-1.6725.0001-3.04959-1.2905-3.06652-2.9132l-.00005-.0041c.01144-1.3842 1.03257-2.5609 2.43277-2.834 1.5729-.3069 3.1226.6145 3.5381 2.096 1.1666-.039 2.2613-.5314 3.0345-1.3545h-.1984c-.015-.0007-.03-.002-.045-.0035-.4051-.0415-.7161-.3906-.6778-.7995v-6.6596c0-.205.0618-.4147.1808-.5785.1209-.1666.31-.29497.5516-.29497h.4063V8.75988c0-3.55354-3.0146-6.45079-6.754-6.45079-3.73947 0-6.75405 2.89725-6.75405 6.45079v1.11415h.40624c.24164 0 .43071.12837.55164.29497.11895.1639.18073.3736.18073.5785v6.6597c0 .5829-.53125.7919-.59038.8023m-.76823-1.3085v-5.7179H3.22107c-.62624 0-1.08168.5719-1.08168 1.1981v3.4034a1.300464 1.300464 0 0 0-.00114.029c-.01493.5863.46987 1.0731 1.08282 1.0874h1.48018Zm-.22-.22v-5.2779H3.22107c-.47664 0-.86168.4432-.86168.9781v3.4146l-.00122.0234c-.01126.4545.36634.8489.86558.8618h1.2575Zm8.86185 4.5554c.2515-.2463.3812-.5799.3613-.9191l-.0007-.0128.0003-.001m-.3609.9329-.0044.0045.0044-.0045Zm-.0044.0045c-.2727.2828-.6579.4469-1.0646.45l1.0646-.45Zm-1.0646.45c-.8151-.0135-1.4611-.6328-1.489-1.3902.0018-.755.6449-1.383 1.4589-1.3833.8153-.0004 1.4597.6296 1.46 1.3861m-1.4309 1.6074c.4653-.0028.9085-.1902 1.2239-.5173.2958-.2897.4507-.6849.427-1.0891v-.0013c-.0003-.8873-.7526-1.6062-1.6801-1.6058-.9275.0003-1.6791.7198-1.6788 1.6071.0303.8854.7818 1.5923 1.708 1.6064Zm8.3486-5.5328c.0489-.0744.0848-.1762.0848-.3212v-3.4034c0-.2665-.0992-.5922-.2693-.8483-.1725-.2598-.3844-.402-.5924-.402h-.9755v5.2778h.9755c.1549 0 .3844-.0258.567-.1213.0884-.0463.16-.1058.2099-.1816Zm-.7769.5229c.3416 0 1.0817-.1089 1.0817-.8441v-3.4034c0-.6262-.4554-1.4703-1.0817-1.4703h-1.1955v5.7178h1.1955Z" fill="#2B2E34"/>
  <circle cx="12.3507" cy="20.35" r="1.35" fill="#FBFBFB"/>
</svg>