<svg width="21" height="21" viewBox="0 0 21 21" fill="none" xmlns="http://www.w3.org/2000/svg">
  <path d="M11.177 7.15538v.0778l.0755.01913c1.2346.31327 2.2023 1.35441 2.3768 2.66319l1.0463 7.8471c.1056.7919-.1356 1.5907-.6618 2.1917s-1.2861.9457-2.085.9457H3.57062c-.79882 0-1.55874-.3447-2.08501-.9458-.52619-.601-.767395-1.3998-.661816-2.1916L1.8701 9.91546c.17455-1.30878 1.14217-2.34989 2.37686-2.66319l.0754-.01914V4.77344c0-.49706.40295-.9.9-.9H7.02939V1.54063H4.32236V1c0-.497056.40294-.9.9-.9h6.92614c.768 0 1.4895.298845 2.0325.841882l2.0702 2.070278c.2813.28131.2813.7374 0 1.0187-.2813.28129-.7373.28129-1.0186-.00001l-2.0703-2.0703h-.0001c-.2706-.27068-.6309-.41992-1.0137-.41992H8.47002V3.87344H10.277c.4971 0 .9.40294.9.9v2.38194ZM9.73643 5.41406v-.1H5.76299V7.15469h3.97344V5.41406ZM2.25182 17.953l.09026.0121-.09026-.0121c-.05135.3854.0617.7598.31775 1.0523.25607.2925.61232.4541 1.00105.4541h8.35818c.3888 0 .745-.1616 1.0011-.4541.2561-.2925.3691-.6669.3178-1.0522l-1.0463-7.8472c-.1149-.86137-.8564-1.51059-1.7254-1.51059H5.02348c-.869 0-1.61053.64922-1.72535 1.51059L2.25182 17.953Zm14.66748-7.3312h-.0001v.0025c0 .5064.4129.9191.9204.9191.5072 0 .9198-.4122.9203-.9194h.0001l-.0003-.0057c-.0022-.0394-.0416-.4032-.7002-1.37244-.0462-.06813-.0926-.13486-.1383-.19942l-.0816-.11531-.0817.11527c-.0457.06462-.0921.13135-.1383.19946-.6667.98124-.6995 1.34294-.7003 1.37594Zm2.3366-2.1785.0813-.05512-.0813.05513c.8559 1.26144.9446 1.85579.9446 2.17969 0 1.3018-1.0592 2.361-2.3609 2.361-1.3018 0-2.361-1.0592-2.361-2.361 0-.3239.0887-.91825.9446-2.17969l-.0743-.05037.0743.05037c.2115-.31174.5838-.78757.9053-1.18774.1603-.19958.3073-.37951.4143-.50954.0376-.04575.0702-.08532.0968-.11738.0265.03206.0591.07163.0967.11738.107.13003.254.30996.4143.50954.3215.40017.6938.876.9053 1.18773ZM8.51103 13.248v.1h1.64067v1.4407H8.51103v1.6406H7.07041v-1.6406H5.42978V13.348h1.64063v-1.6406h1.44062v1.5406Z" fill="#2B2E34" stroke="#fff" stroke-width=".2"/>
</svg>