<svg width="23" height="18" viewBox="0 0 23 18" fill="none" xmlns="http://www.w3.org/2000/svg">
  <path d="M21.4446.633057c-.3625 0-.6565.301058-.6565.671643v2.62689h-.7339v-.59865c0-1.48862-1.1839-2.699883-2.6385-2.699883-.7902 0-1.4979.359246-1.9823.923793-.4843-.564547-1.1921-.923793-1.982-.923793-.7902 0-1.4984.359246-1.9823.923793-.4843-.564547-1.1923-.923793-1.98231-.923793-.78987 0-1.49806.359246-1.98215.923793C7.02055.992303 6.31237.633057 5.52231.633057c-1.45474 0-2.63858 1.211353-2.63858 2.699883v.59865h-1.3269c-.36219 0-.656439.30087-.656439.67164 0 .37068.294249.67174.656439.67174h1.32589V15.3002c0 1.4887 1.18394 2.6999 2.63859 2.6999.79005 0 1.49824-.359 1.98233-.9236.48409.5646 1.19209.9236 1.98214.9236.79002 0 1.49802-.359 1.98212-.9236.484.5646 1.1923.9236 1.9822.9236.7898 0 1.4984-.359 1.9823-.9236.4838.5646 1.1925.9236 1.9823.9236 1.455 0 2.6388-1.2113 2.6388-2.6999V5.27544h1.39c.3624 0 .6564-.30106.6564-.67165V1.30517c.0012-.371055-.2933-.672113-.6553-.672113ZM18.7412 5.27544V15.3007c0 .7482-.5946 1.3566-1.3255 1.3566-.7309 0-1.3258-.6083-1.3258-1.3566V3.3334c0-.74801.5949-1.35659 1.3258-1.35659.7309 0 1.3255.60849 1.3255 1.35659v1.94204ZM14.7765 15.3003c0 .7481-.5949 1.3565-1.3258 1.3565-.7309 0-1.3259-.6083-1.3259-1.3565V3.3334c0-.74801.5949-1.35659 1.3259-1.35659.7308 0 1.3258.60849 1.3258 1.35659v11.9669Zm-3.9644 0c0 .7481-.5947 1.3565-1.32558 1.3565-.73081 0-1.32562-.6083-1.32562-1.3565V3.3334c0-.74801.59481-1.35659 1.32562-1.35659.73088 0 1.32558.60849 1.32558 1.35659v11.9669Zm-3.96463 0c0 .7481-.59499 1.3565-1.3258 1.3565-.73089 0-1.32561-.6083-1.32561-1.3565V3.3334c0-.74801.59472-1.35659 1.32561-1.35659.73081 0 1.3258.60849 1.3258 1.35659v11.9669Z" fill="#2B2E34"/>
</svg>