<svg width="20" height="24" viewBox="0 0 20 24" fill="none" xmlns="http://www.w3.org/2000/svg">
  <path d="M14.9542 7.97281V5.9338c0-.63538-.1195-1.26454-.3518-1.85155-.2322-.58702-.5726-1.12039-1.0017-1.56967-.4291-.44929-.9385-.80567-1.4992-1.04882-.5607-.24315-1.1616-.3683-1.7684-.3683-.60689 0-1.2078.12515-1.76846.3683-.56066.24315-1.07009.59953-1.4992 1.04882-.42911.44928-.7695.98265-1.00173 1.56967-.23224.58701-.35177 1.21617-.35177 1.85155v4.8383c0 .1834.06956.3592.19336.4888.1238.1296.29172.2024.4668.2024.17509 0 .343-.0728.46681-.2024.1238-.1296.19335-.3054.19335-.4888V9.3552h5.28124V7.97281H7.03226V5.9338c0-.91658.34777-1.79561.96679-2.44373s1.45859-1.01223 2.33405-1.01223c.8754 0 1.715.36411 2.334 1.01223s.9668 1.52715.9668 2.44373v4.8038c0 .1833.0695.3591.1933.4887.1238.1297.2917.2025.4668.2025.1751 0 .343-.0728.4668-.2025.1238-.1296.1934-.3054.1934-.4887V9.3552h3.3008v12.4414H2.41114V9.3552h1.98048V7.97281h-3.3008V21.8589c0 .3501.13285.6859.36931.9335.23647.2475.55718.3866.8916.3866H18.3144c.3344 0 .6551-.1391.8916-.3866.2365-.2476.3693-.5834.3693-.9335V7.97281h-4.6211Z" fill="#2B2E34"/>
  <path d="M7.03255 8.03274h5.22125v1.26238H6.97255v1.47698c0 .1682-.06387.3291-.17675.4473-.11278.1181-.26515.1839-.42341.1839s-.31063-.0658-.42342-.1839c-.11287-.1182-.17674-.2791-.17674-.4473V5.93372c0-.62787.11812-1.24953.34755-1.82948.22944-.57993.56565-1.1067.98933-1.5503.42368-.44358.9265-.7953 1.47969-1.03521.55318-.23991 1.14597-.36334 1.7446-.36334.5985 0 1.1913.12343 1.7445.36334.5532.23991 1.056.59163 1.4797 1.03521.4237.4436.7599.97037.9893 1.5503.2295.57995.3476 1.20161.3476 1.82948v2.09902H19.5156V21.8588c0 .3351-.1272.6559-.3527.892-.2254.2361-.5306.3681-.8482.3681H2.35201c-.31759 0-.62276-.132-.84821-.3681-.22554-.2361-.3527-.5569-.3527-.892V8.03274h3.18081v1.26238H2.35142V21.8566H18.3153V9.29512H14.8945v1.44238c0 .1683-.0639.3291-.1768.4473-.1128.1181-.2651.1839-.4234.1839-.1582 0-.3106-.0658-.4234-.1839-.1129-.1182-.1767-.279-.1767-.4473V5.93372c0-.93162-.3535-1.82561-.9834-2.48517-.6301-.65965-1.4852-1.03078-2.3774-1.03078-.8923 0-1.74742.37113-2.37746 1.03078-.62995.65956-.98339 1.55355-.98339 2.48517v2.09902h.06Zm12.69415-.15539v-.06H15.1056V5.93372c0-.65541-.1233-1.30446-.3629-1.91012-.2396-.60567-.5909-1.15616-1.0339-1.61999-.443-.46383-.9691-.83192-1.5483-1.0831C11.5813 1.06932 10.9604.94 10.3334.94c-.62714 0-1.24802.12932-1.82721.38051-.57919.25118-1.10527.61927-1.54828 1.0831-.443.46383-.79427 1.01432-1.03388 1.61999-.23961.60566-.36291 1.25471-.36291 1.91012v4.83838c0 .2236.08484.4386.23665.5976.15191.159.35854.2489.57462.2489.21607 0 .4227-.0899.57461-.2489.15182-.159.23665-.374.23665-.5976V9.51051h5.28125V7.81735H7.18365V5.93372c0-.87623.33248-1.71605.92349-2.33484.59092-.61869 1.39177-.96573 2.22626-.96573.8344 0 1.6352.34704 2.2262.96573.591.61879.9235 1.45861.9235 2.33484v4.80378c0 .2237.0848.4387.2366.5976.1519.1591.3585.249.5746.249.2161 0 .4227-.0899.5746-.249.1518-.1589.2367-.3739.2367-.5976V9.51051h2.9986V21.6412H2.56253V9.51051h1.98048V7.81735H.94V21.8588c0 .3905.14813.7655.4126 1.0424.26457.277.62401.4331.99941.4331H18.3147c.3754 0 .7348-.1561.9994-.4331.2645-.2769.4126-.6519.4126-1.0424V7.87735Z" fill="#2B2E34" stroke="#2B2E34" stroke-width=".12"/>
</svg>