<svg width="35" height="25" fill="none" xmlns="http://www.w3.org/2000/svg">
  <path d="M8.59019 18.7742H4.9852c-.57441 0-1.03989.4655-1.03989 1.0399s.46555 1.0398 1.03989 1.0398h3.60506c.5744 0 1.03988-.4655 1.03988-1.0398 0-.5745-.46554-1.0399-1.03995-1.0399Z" fill="#2B2E34" fill-opacity=".12" stroke="#fff" stroke-width=".3"/>
  <path fill-rule="evenodd" clip-rule="evenodd" d="m31.8416 9.91971 1.9389 2.49719c.1414.1823.2183.407.2183.6378v6.7594c0 .5743-.4655 1.0398-1.0399 1.0398h-3.0165c-.4747 1.7747-2.0964 3.0853-4.0191 3.0853-1.9222 0-3.5441-1.3106-4.019-3.0852h-6.1748c-.4749 1.7746-2.0968 3.0852-4.019 3.0852-2.29374 0-4.15972-1.866-4.15972-4.1597 0-2.2936 1.86598-4.1596 4.15972-4.1596 1.9471 0 3.586 1.3447 4.0368 3.1543h6.1392c.4508-1.8096 2.0897-3.1543 4.0368-3.1543 1.9472 0 3.5861 1.3447 4.0369 3.1543h1.9588V13.411l-1.5145-1.9509h-8.0874c-.5743 0-1.0399-.4655-1.0399-1.0399V3.14081H4.9852c-.57434 0-1.03989-.46555-1.03989-1.03989s.46548-1.03988 1.03989-1.03988h17.332c.5743 0 1.0398.46548 1.0398 1.03988v1.03995h4.4383c.3931 0 .7525.22152.9293.57267l3.1197 6.20477-.0027.0014Zm-2.5963-.53939L27.154 5.22071h-3.797v4.15961h5.8883ZM28.0031 19.7648c-.0079-1.1403-.9377-2.0651-2.0798-2.0651-1.147 0-2.0798.9328-2.0798 2.0798 0 1.1471.9328 2.0799 2.0798 2.0799 1.1267 0 2.0468-.9 2.079-2.0191-.0002-.0087-.0003-.0175-.0003-.0262 0-.0166.0004-.033.0011-.0493Zm-16.2926 2.0946c-1.1471 0-2.07988-.9328-2.07988-2.0799 0-1.147.93278-2.0798 2.07988-2.0798 1.1466 0 2.0798.9328 2.0798 2.0798 0 1.1471-.9328 2.0799-2.0798 2.0799Z" fill="#2B2E34"/>
  <path d="m33.7805 12.4169.1185-.0919v-.0001l-.1185.092Zm-1.9389-2.49719-.0674-.13402-.163.08193.1119.14408.1185-.09199Zm2.1572 9.89439h.15-.15Zm-4.0564 1.0398v-.15h-.1151l-.0298.1113.1449.0387Zm-8.0381.0001.1449-.0388-.0297-.1112h-.1152v.15Zm-6.1748 0v-.15h-.1152l-.0297.1112.1449.0388Zm.0178-2.0798-.1455.0362.0283.1138h.1172v-.15Zm6.1392 0v.15h.1172l.0283-.1138-.1455-.0362Zm8.0737 0-.1455.0362.0283.1138h.1172v-.15Zm1.9588 0v.15h.15v-.15h-.15Zm0-5.3632h.15v-.0514l-.0315-.0406-.1185.092Zm-1.5145-1.9509.1185-.092-.045-.058h-.0735v.15Zm-9.1273-8.31929h.15v-.15h-.15v.15Zm2.0798.00006h-.15v.15h.15v-.15Zm5.3676.57267.134-.06739v-.00007l-.134.06746Zm3.1197 6.20477.0674.13399.134-.06735-.0673-.13402-.1341.06738Zm-4.6903-4.6976.134-.06738-.0416-.08262h-.0924v.15Zm2.0913 4.15961v.15h.2433l-.1093-.21738-.134.06738ZM23.357 5.22071v-.15h-.15v.15h.15Zm0 4.15961h-.15v.15h.15v-.15Zm4.6461 10.38448.1501.007-.0001-.0081-.15.0011Zm-.0008.0755.1502.0043-.0002-.008-.15.0037Zm5.8967-7.5154L31.96 9.82771l-.2369.18399 1.9389 2.4972.237-.184Zm.2498.7298c0-.2641-.088-.5211-.2498-.7297l-.2371.1838c.1211.1561.1869.3484.1869.5459h.3Zm0 6.7594v-6.7594h-.3v6.7594h.3Zm-1.1899 1.1898c.6572 0 1.1899-.5327 1.1899-1.1898l-.3-.0001c0 .4916-.3984.8899-.8899.8899v.3Zm-3.0165 0h3.0165v-.3h-3.0165v.3Zm-.1449-.1887c-.4577 1.7108-2.0213 2.974-3.8742 2.974v.3c1.9924 0 3.6722-1.358 4.164-3.1965l-.2898-.0775Zm-3.8742 2.974c-1.8525 0-3.4163-1.2632-3.8741-2.974l-.2898.0776c.4919 1.8384 2.1719 3.1964 4.1639 3.1964v-.3Zm-4.019-3.0852h-6.1748v.3h6.1748v-.3Zm-6.3197.1112c-.4578 1.7108-2.0216 2.974-3.8741 2.974v.3c1.992 0 3.672-1.358 4.1639-3.1964l-.2898-.0776Zm-3.8741 2.974c-2.21089 0-4.00972-1.7988-4.00972-4.0097h-.3c0 2.3766 1.93314 4.3097 4.30972 4.3097v-.3Zm-4.00972-4.0097c0-2.2108 1.79883-4.0096 4.00972-4.0096v-.3c-2.37658 0-4.30972 1.9331-4.30972 4.3096h.3Zm4.00972-4.0096c1.8765 0 3.4567 1.2961 3.8913 3.0405l.2911-.0725c-.467-1.8747-2.1647-3.268-4.1824-3.268v.3Zm4.0368 3.1543h6.1392v-.3h-6.1392v.3Zm6.2847-.1138c.4346-1.7444 2.0148-3.0405 3.8913-3.0405v-.3c-2.0177 0-3.7154 1.3933-4.1824 3.268l.2911.0725Zm3.8913-3.0405c1.8766 0 3.4568 1.2961 3.8914 3.0405l.2911-.0725c-.4671-1.8747-2.1647-3.268-4.1825-3.268v.3Zm5.9957 2.8543h-1.9588v.3h1.9588v-.3Zm-.15-5.2132v5.3632h.3V13.411h-.3Zm-1.4829-1.8589 1.5144 1.9508.237-.1839-1.5145-1.9509-.2369.184Zm-7.969.058h8.0874v-.3h-8.0874v.3Zm-1.1899-1.1899c0 .6573.5327 1.1899 1.1899 1.1899v-.3c-.4915 0-.8899-.3983-.8899-.8899h-.3Zm0-7.27939v7.27939h.3V3.14081h-.3Zm-16.142.15h16.292v-.3H4.9852v.3ZM3.79531 2.10092c0 .65719.5327 1.18989 1.18989 1.18989v-.3c-.4915 0-.88989-.39839-.88989-.88989h-.3ZM4.9852.911035c-.65726 0-1.18989.532705-1.18989 1.189885h.3c0-.4915.39833-.88988.88989-.88988V.911035Zm17.332 0H4.9852v.300005h17.332V.911035ZM23.507 2.10092c0-.65725-.5327-1.189885-1.1898-1.189885v.300005c.4915 0 .8898.39832.8898.88988h.3Zm0 1.03995V2.10092h-.3v1.03995h.3Zm4.2883-.15H23.357v.3h4.4383v-.3Zm1.0633.65521c-.2023-.40174-.6136-.65521-1.0633-.65521v.3c.3364 0 .644.18958.7953.49012l.268-.13491Zm3.1198 6.20485-3.1198-6.20478-.268.13477 3.1197 6.20477.2681-.13476Zm-.0695.20277.0028-.0014-.1347-.268-.0028.00139.1347.26801Zm-4.889-4.76561 2.0914 4.15961.268-.13476-2.0913-4.15961-.2681.13476Zm-3.6629.08262h3.797v-.3h-3.797v.3Zm.15 4.00961V5.22071h-.3v4.15961h.3Zm5.7383-.15H23.357v.3h5.8883v-.3ZM28.1531 19.7637c-.0085-1.2226-1.0052-2.214-2.2298-2.214v.3c1.0596 0 1.9225.8583 1.9298 1.9161l.3-.0021Zm-2.2298-2.214c-1.2298 0-2.2298 1-2.2298 2.2298h.3c0-1.0641.8657-1.9298 1.9298-1.9298v-.3Zm-2.2298 2.2298c0 1.2299 1 2.2299 2.2298 2.2299v-.3c-1.0641 0-1.9298-.8657-1.9298-1.9299h-.3Zm2.2298 2.2299c1.2082 0 2.1944-.9648 2.229-2.1648l-.2999-.0086c-.0299 1.0382-.8838 1.8734-1.9291 1.8734v.3Zm1.9287-2.1953c0 .01.0001.0199.0004.0299l.2999-.0074a.8440125.8440125 0 0 1-.0003-.0225h-.3Zm.0013-.0563c-.0009.0186-.0013.0374-.0013.0563h.3c0-.0142.0003-.0283.001-.0423l-.2997-.014Zm-18.37268.0217c0 1.2299.99998 2.2299 2.22988 2.2299v-.3c-1.0642 0-1.92988-.8657-1.92988-1.9299h-.3Zm2.22988-2.2298c-1.2299 0-2.22988 1-2.22988 2.2298h.3c0-1.0641.86568-1.9298 1.92988-1.9298v-.3Zm2.2298 2.2298c0-1.2298-1.0003-2.2298-2.2298-2.2298v.3c1.0638 0 1.9298.8657 1.9298 1.9298h.3Zm-2.2298 2.2299c1.2298 0 2.2298-.9999 2.2298-2.2299h-.3c0 1.0643-.8657 1.9299-1.9298 1.9299v.3Z" fill="#fff"/>
  <path d="M8.52275 13.5051H3.73911c-.57441 0-1.03989.4656-1.03989 1.0399 0 .5744.46554 1.0399 1.03989 1.0399h4.78358c.5744 0 1.03988-.4655 1.03988-1.0399.00007-.5743-.46548-1.0399-1.03982-1.0399Z" fill="#2B2E34" fill-opacity=".3" stroke="#fff" stroke-width=".3"/>
  <path d="M10.9139 9.41504H2.03989C1.46554 9.41504 1 9.88058 1 10.455c0 .5744.46554 1.0399 1.03989 1.0399h8.87401c.5744 0 1.0398-.4656 1.0398-1.0399 0-.57435-.4654-1.03996-1.0398-1.03996Z" fill="#2B2E34" fill-opacity=".6" stroke="#fff" stroke-width=".3"/>
  <path d="M12.6131 5.32471H3.73911c-.57441 0-1.03989.46554-1.03989 1.03988 0 .57441.46554 1.03989 1.03989 1.03989h8.87399c.5744 0 1.0399-.46555 1.0399-1.03989s-.4655-1.03988-1.0399-1.03988Z" fill="#2B2E34" fill-opacity=".8" stroke="#fff" stroke-width=".3"/>
</svg>