<svg width="101" height="19" fill="none" xmlns="http://www.w3.org/2000/svg">
  <path d="M28.2 3.8h1.488V15H28.2V3.8Zm7.7306 2.992c.9387 0 1.6907.29867 2.256.896.5654.58667.848 1.38667.848 2.4V15h-1.392v-4.832c0-.65067-.176-1.152-.528-1.504-.352-.36267-.8373-.544-1.456-.544-.6933 0-1.2533.21867-1.68.656-.4266.42667-.64 1.088-.64 1.984V15h-1.392V7h1.392v1.152c.5654-.90667 1.4294-1.36 2.592-1.36Zm6.2473 2.368c0 .30933.1546.56.464.752.3093.1813.6826.3307 1.12.448.4373.1067.8746.2347 1.312.384.4373.1387.8106.384 1.12.736.3093.3413.464.784.464 1.328 0 .7253-.2827 1.3067-.848 1.744-.5547.4373-1.2694.656-2.144.656-.7787 0-1.4454-.1707-2-.512-.5547-.3413-.9494-.7947-1.184-1.36l1.2-.688c.128.384.368.688.72.912.352.224.7733.336 1.264.336.4586 0 .8373-.0853 1.136-.256.2986-.1813.448-.4587.448-.832 0-.3093-.1547-.5547-.464-.736-.3094-.192-.6827-.3413-1.12-.448-.4374-.1173-.8747-.2507-1.312-.4-.4374-.1493-.8107-.3947-1.12-.736-.3094-.3413-.464-.77867-.464-1.312 0-.69333.2666-1.264.8-1.712.544-.448 1.2213-.672 2.032-.672.6506 0 1.2266.14933 1.728.448.512.288.896.69333 1.152 1.216l-1.168.656c-.288-.68267-.8587-1.024-1.712-1.024-.3947 0-.7307.096-1.008.288-.2774.18133-.416.44267-.416.784Zm10.1676-.816h-2.128v4.336c0 .3947.0747.6773.224.848.16.16.4.2453.72.256.32 0 .7147-.0107 1.184-.032V15c-1.216.16-2.1067.064-2.672-.288-.5653-.3627-.848-1.04-.848-2.032V8.344h-1.584V7h1.584V5.176l1.392-.416V7h2.128v1.344ZM60.2113 7h1.392v8h-1.392v-1.376c-.6934 1.056-1.7014 1.584-3.024 1.584-1.12 0-2.0747-.4053-2.864-1.216-.7894-.8213-1.184-1.8187-1.184-2.992 0-1.17333.3946-2.16533 1.184-2.976.7893-.82133 1.744-1.232 2.864-1.232 1.3226 0 2.3306.528 3.024 1.584V7Zm-2.848 6.864c.8106 0 1.488-.272 2.032-.816.544-.5547.816-1.2373.816-2.048s-.272-1.488-.816-2.032c-.544-.55467-1.2214-.832-2.032-.832-.8 0-1.472.27733-2.016.832-.544.544-.8161 1.2213-.8161 2.032s.2721 1.4933.8161 2.048c.544.544 1.216.816 2.016.816ZM70.3523 7h1.376v7.664c0 1.184-.4 2.1013-1.2 2.752-.8.6613-1.76.992-2.88.992-.896 0-1.6694-.1707-2.32-.512-.6507-.3307-1.1414-.8107-1.472-1.44l1.216-.688c.4373.896 1.3066 1.344 2.608 1.344.832 0 1.4826-.2187 1.952-.656.48-.4373.72-1.0347.72-1.792v-1.136c-.704 1.0667-1.7067 1.6-3.008 1.6-1.1414 0-2.1067-.4053-2.896-1.216-.7894-.8107-1.184-1.7973-1.184-2.96 0-1.16267.3946-2.144 1.184-2.944.7893-.81067 1.7546-1.216 2.896-1.216 1.312 0 2.3146.528 3.008 1.584V7Zm-4.88 5.984c.544.544 1.2213.816 2.032.816.8106 0 1.488-.272 2.032-.816.544-.544.816-1.2213.816-2.032 0-.8-.272-1.472-.816-2.016-.544-.544-1.2214-.816-2.032-.816-.8107 0-1.488.272-2.032.816-.544.544-.8161 1.216-.8161 2.016 0 .8107.2721 1.488.8161 2.032Zm9.757-4.64c.4586-.992 1.2906-1.488 2.496-1.488v1.456c-.6827-.032-1.2694.14933-1.76.544-.4907.39467-.736 1.02933-.736 1.904V15h-1.3921V7h1.3921v1.344ZM85.2738 7h1.392v8h-1.392v-1.376c-.6934 1.056-1.7014 1.584-3.024 1.584-1.12 0-2.0747-.4053-2.864-1.216-.7894-.8213-1.184-1.8187-1.184-2.992 0-1.17333.3946-2.16533 1.184-2.976.7893-.82133 1.744-1.232 2.864-1.232 1.3226 0 2.3306.528 3.024 1.584V7Zm-2.848 6.864c.8106 0 1.488-.272 2.032-.816.544-.5547.816-1.2373.816-2.048s-.272-1.488-.816-2.032c-.544-.55467-1.2214-.832-2.032-.832-.8 0-1.472.27733-2.016.832-.544.544-.816 1.2213-.816 2.032s.272 1.4933.816 2.048c.544.544 1.216.816 2.016.816Zm14.989-7.072c.896 0 1.6213.29333 2.176.88.5542.576.8322 1.36.8322 2.352V15h-1.3922v-4.928c0-.61867-.16-1.09867-.48-1.44-.32-.34133-.7467-.512-1.28-.512-.5974 0-1.0774.20267-1.44.608-.352.39467-.528 1.00267-.528 1.824V15h-1.392v-4.928c0-.61867-.1547-1.09867-.464-1.44-.2987-.34133-.7094-.512-1.232-.512-.5867 0-1.0774.20267-1.472.608-.384.40533-.576 1.01333-.576 1.824V15h-1.3921V7h1.3921v1.072c.544-.85333 1.3386-1.28 2.384-1.28 1.0773 0 1.8613.45333 2.352 1.36.5546-.90667 1.392-1.36 2.512-1.36ZM9.50003 7.02677c-1.36192 0-2.47334 1.11143-2.47334 2.47334 0 1.36189 1.11142 2.47339 2.47334 2.47339 1.36187 0 2.47337-1.1115 2.47337-2.47339 0-1.36191-1.1115-2.47334-2.47337-2.47334Zm7.41817 2.47334c0-1.02422.0093-2.03916-.0483-3.06152-.0575-1.1875-.3284-2.24141-1.1967-3.10977-.8702-.87021-1.9223-1.13925-3.1098-1.19677-1.0242-.05752-2.0392-.04825-3.06152-.04825-1.02422 0-2.03916-.00927-3.06152.04825-1.1875.05752-2.24141.32841-3.10977 1.19677-.87021.87022-1.13925 1.92227-1.19677 3.10977-.05752 1.02422-.04825 2.03916-.04825 3.06152 0 1.02239-.00927 2.03919.04825 3.06149.05752 1.1875.32841 2.2414 1.19677 3.1098.87022.8702 1.92227 1.1393 3.10977 1.1968 1.02422.0575 2.03916.0482 3.06152.0482 1.02422 0 2.03912.0093 3.06152-.0482 1.1875-.0575 2.2414-.3284 3.1098-1.1968.8702-.8702 1.1392-1.9223 1.1967-3.1098.0594-1.0223.0483-2.0373.0483-3.06149ZM9.50003 13.3057c-2.10596 0-3.80557-1.6996-3.80557-3.80559 0-2.10595 1.69961-3.80556 3.80557-3.80556 2.10597 0 3.80557 1.69961 3.80557 3.80556 0 2.10599-1.6996 3.80559-3.80557 3.80559Zm3.96147-6.87824c-.4917 0-.8888-.39707-.8888-.88877 0-.4917.3971-.88877.8888-.88877s.8887.39707.8887.88877c.0002.11675-.0227.23239-.0673.34029-.0446.10789-.1101.20593-.1927.28849-.0825.08256-.1806.14802-.2885.19263-.1079.04461-.2235.0675-.3402.06736Z" fill="#7E838C"/>
</svg>