<svg width="17" height="24" fill="none" xmlns="http://www.w3.org/2000/svg">
  <path d="M.85 8.69185C.85 4.35062 4.3003.85 8.5.85c4.1996 0 7.6499 3.50061 7.65 7.84185 0 1.32145-.4268 2.85965-1.1238 4.47135-.6925 1.6015-1.6263 3.218-2.5816 4.6802C10.6861 20.5348 8.89165 22.6474 8.5 23.1c-.39166-.4526-2.18611-2.5652-3.9446-5.2566-.95532-1.4622-1.88908-3.0787-2.58162-4.6802C1.27683 11.5515.85 10.0133.85 8.69185ZM8.56926 23.1796l-.00003-.0001.00003.0001Z" stroke="#2B2E34" stroke-width="1.7"/>
  <circle cx="8.5" cy="8.5" r="2.65" stroke="#2B2E34" stroke-width="1.7"/>
</svg>