<svg width="22" height="23" viewBox="0 0 22 23" fill="none" xmlns="http://www.w3.org/2000/svg">
  <path d="M18.76 15.6163c-1.2964-1.085-2.612-1.7423-3.8925-.6589l-.7646.6548c-.5594.4753-1.5995 2.6962-5.62087-1.8308-4.02057-4.52131-1.62799-5.22528-1.06774-5.6965l.76877-.65562c1.27375-1.08587.79306-2.45283-.12562-3.85996l-.55438-.8523c-.92287-1.40384-1.9278-2.325806-3.2049-1.24158l-.69005.59006c-.56444.40238-2.14218 1.71034-2.5249 4.19514-.460589 2.98142.99238 6.39556 4.32121 10.14156 3.32465 3.7477 6.57978 5.6302 9.66328 5.5974 2.5626-.0271 4.1102-1.3727 4.5942-1.862l.6926-.5909c1.2737-1.0834.4823-2.1864-.8149-3.2739l-.7796-.6565Z" stroke="#2B2E34" stroke-width="2"/>
</svg>