<svg width="22" height="23" fill="none" xmlns="http://www.w3.org/2000/svg">
  <path d="M18.8003 15.6163c-1.2993-1.085-2.6179-1.7423-3.9013-.6589l-.7663.6548c-.5607.4753-1.6031 2.6962-5.63367-1.8308-4.0297-4.52131-1.63169-5.22528-1.07017-5.6965l.77052-.65562c1.27665-1.08587.79487-2.45284-.1259-3.85996l-.55565-.8523C6.59288 1.31318 5.58566.391214 4.30566 1.47544l-.69163.59006c-.56572.40238-2.14704 1.71034-2.53063 4.19514-.461637 2.98142.99463 6.39556 4.33103 10.14156 3.33221 3.7477 6.59477 5.6302 9.68527 5.5974 2.5684-.0271 4.1195-1.3727 4.6046-1.862l.6941-.5909c1.2767-1.0834.4835-2.1864-.8166-3.274l-.7815-.6564Z" stroke="#2B2E34" stroke-width="1.7"/>
</svg>