<svg width="115" height="25" fill="none" xmlns="http://www.w3.org/2000/svg">
  <path d="M41.6 12.192c.512.2453.9173.5973 1.216 1.056.3093.4587.464.9867.464 1.584 0 .896-.3147 1.648-.944 2.256-.6293.608-1.3973.912-2.304.912H35.2V6.8h4.48c.8747 0 1.616.29333 2.224.88.608.58667.912 1.312.912 2.176 0 .992-.4053 1.7707-1.216 2.336Zm-1.92-4h-2.992v3.424h2.992c.4693 0 .864-.1653 1.184-.496.32-.3307.48-.736.48-1.216 0-.46933-.1653-.86933-.496-1.2-.32-.34133-.7093-.512-1.168-.512Zm.352 8.416c.5013 0 .9227-.176 1.264-.528.3413-.352.512-.784.512-1.296 0-.5013-.176-.928-.528-1.28-.3413-.352-.7573-.528-1.248-.528h-3.344v3.632h3.344ZM53.1878 18h-1.824l-4.832-5.376V18h-1.488V6.8h1.488v5.056l4.672-5.056h1.824l-4.944 5.44 5.104 5.76Zm7.214-1.008c-.8214.8107-1.8187 1.216-2.992 1.216-1.1734 0-2.1707-.4053-2.992-1.216-.8107-.8107-1.216-1.808-1.216-2.992s.4053-2.1813 1.216-2.992c.8213-.8107 1.8186-1.216 2.992-1.216 1.1733 0 2.1706.4053 2.992 1.216.8213.8107 1.2319 1.808 1.2319 2.992s-.4106 2.1813-1.2319 2.992Zm-2.992-.144c.8 0 1.472-.272 2.016-.816.544-.544.816-1.2213.816-2.032s-.272-1.488-.816-2.032c-.544-.544-1.216-.816-2.016-.816-.7894 0-1.456.272-2 .816-.544.544-.816 1.2213-.816 2.032s.272 1.488.816 2.032c.544.544 1.2106.816 2 .816ZM68.8108 10h1.392v8h-1.392v-3.344h-4.144V18h-1.3921v-8h1.3921v3.328h4.144V10Zm9.4628 0v1.344h-2.72V18h-1.392v-6.656h-2.736V10h6.848Zm7.5314 0h1.392v8h-1.392v-1.376c-.6933 1.056-1.7013 1.584-3.024 1.584-1.12 0-2.0747-.4053-2.864-1.216-.7893-.8213-1.184-1.8187-1.184-2.992s.3947-2.1653 1.184-2.976c.7893-.8213 1.744-1.232 2.864-1.232 1.3227 0 2.3307.528 3.024 1.584V10Zm-2.848 6.864c.8107 0 1.488-.272 2.032-.816.544-.5547.816-1.2373.816-2.048s-.272-1.488-.816-2.032c-.544-.5547-1.2213-.832-2.032-.832-.8 0-1.472.2773-2.016.832-.544.544-.816 1.2213-.816 2.032s.272 1.4933.816 2.048c.544.544 1.216.816 2.016.816ZM96.074 18h-1.728l-3.648-3.792V18h-1.392v-8h1.392v3.536L94.154 10h1.792l-3.824 3.872L96.074 18Zm7.247-8v1.344h-2.72V18h-1.3925v-6.656h-2.736V10h6.8485Zm1.883 4.64c.139.7147.464 1.2693.976 1.664.523.3947 1.163.592 1.92.592 1.056 0 1.824-.3893 2.304-1.168l1.184.672c-.779 1.2053-1.952 1.808-3.52 1.808-1.269 0-2.304-.3947-3.104-1.184-.789-.8-1.184-1.808-1.184-3.024 0-1.2053.389-2.208 1.168-3.008.779-.8 1.787-1.2 3.024-1.2 1.173 0 2.128.416 2.864 1.248.747.8213 1.12 1.8133 1.12 2.976 0 .2027-.016.4107-.048.624h-6.704Zm2.768-3.536c-.747 0-1.365.2133-1.856.64-.491.416-.795.976-.912 1.68h5.344c-.117-.7573-.416-1.3333-.896-1.728-.48-.3947-1.04-.592-1.68-.592ZM22.4781 7.14061c.1458-.48438 0-.83958-.6896-.83958h-2.2844c-.5812 0-.8468.30729-.9927.64479 0 0-1.1614 2.83229-2.8073 4.66878-.5312.5343-.7739.7031-1.0635.7031-.1448 0-.3552-.1688-.3552-.6531V7.14061c0-.58125-.1677-.83958-.6521-.83958h-3.5896c-.36247 0-.58122.26875-.58122.525 0 .55.82292.67708.90732 2.22708v3.36249c0 .7365-.1323.8708-.42399.8708-.77395 0-2.65729-2.8427-3.775-6.09683-.21771-.63229-.4375-.8875-1.02083-.8875H2.86665c-.65313 0-.78334.30729-.78334.64479 0 .60625.77396 3.60624 3.60521 7.57394 1.8875 2.7094 4.54478 4.1781 6.96558 4.1781 1.4511 0 1.6303-.326 1.6303-.8885v-2.0479c0-.6521.1385-.7833.5979-.7833.3375 0 .9187.1708 2.2739 1.476 1.5479 1.5479 1.8042 2.2427 2.674 2.2427h2.2833c.6521 0 .9781-.326.7906-.9698-.2052-.6406-.9447-1.5729-1.926-2.676-.5333-.6292-1.3302-1.3063-1.5729-1.6448-.3386-.4365-.2406-.6292 0-1.0167.001.0011 2.7833-3.9177 3.0729-5.24999Z" fill="#7E838C"/>
</svg>