<svg width="213" height="17" viewBox="0 0 213 17" fill="none" xmlns="http://www.w3.org/2000/svg">
  <path d="M6.29645 6.71832H17.0952V3.56263H0C0 2.40894.462643 1.5267 1.38793.915924 2.33578.305145 3.5883-.0002441 5.14549-.0002441H17.7045c.6771 0 1.3203.0904859 1.9296.2714571.6093.180972 1.1397.429808 1.591.746507.474.29408.8463.65602 1.1171 1.08583.2709.42981.4063.90486.4063 1.42515v9.9421c0 .5429-.1354 1.0293-.4063 1.4591-.2708.4298-.6431.8031-1.1171 1.1198-.4513.294-.9817.5316-1.591.7125-.6093.1584-1.2638.2376-1.9634.2376H5.14549c-.72218 0-1.39922-.0679-2.03112-.2036-.60933-.1358-1.15096-.3394-1.62489-.6108-.47392-.2941-.846294-.656-1.117109-1.0858C.124124 14.6471 0 14.1155 0 13.5047h17.0952v-3.1896H6.29645V6.71832ZM42.3291 16.9998c-.6996 0-1.2863-.0566-1.7603-.1697-.4513-.1131-.8575-.2488-1.2186-.4072-.3386-.1583-.6432-.3393-.914-.5429-.2709-.2036-.5417-.3959-.8125-.5769l-7.1766-6.14167v4.58087c0 .6107-.1467 1.131-.4401 1.5608-.2708.4072-.6431.7352-1.1171.9841-.4739.2488-1.0268.4298-1.6587.5429-.6093.1131-1.2525.1697-1.9296.1697h-.5077V-.0002441h5.6532V7.49876l7.3797-7.4990041h6.2626L36.3712 7.97381l10.291 9.02599h-4.3331ZM71.4436 13.5726c0 .6108-.1354 1.1311-.4062 1.5609-.2708.4072-.6432.7578-1.1171 1.0519-.4514.2714-.993.475-1.6249.6108-.6319.1357-1.309.2036-2.0311.2036H53.7391c-.6996 0-1.3541-.0792-1.9634-.2376-.6094-.1809-1.151-.4185-1.6249-.7125-.4514-.3167-.8125-.6787-1.0833-1.0859-.2482-.4298-.3724-.9161-.3724-1.4591V3.46083c0-.49767.1242-.96141.3724-1.39121.2708-.45243.6319-.82568 1.0833-1.119764.4739-.316699 1.0155-.554224 1.6249-.712574.6093-.1583508 1.2638-.2375261 1.9634-.2375261h12.5252c1.5346 0 2.7758.3053891 3.7237.9161681.9704.588156 1.4556 1.459086 1.4556 2.612776v10.0439ZM65.7903 3.56263H54.3484v9.94207h11.4419V3.56263ZM90.5842 16.9998v-6.6847H79.1423v6.6847H73.489V3.46083c0-.49767.1354-.9501.4062-1.35728.2708-.42981.6319-.79175 1.0833-1.08583.4739-.316699 1.0155-.565535 1.6249-.746507.6093-.1809712 1.2638-.2714571 1.9634-.2714571h.5755V6.78618H90.618V-.0002441h5.6194V16.9998h-5.6532ZM128.768 13.5726c0 .7239-.192 1.3121-.576 1.7645-.361.4524-.823.803-1.388 1.0519-.541.2488-1.151.4185-1.828.509-.654.0678-1.275.1018-1.861.1018h-11.849v-.3394c0-.7917.203-1.4025.61-1.8323.428-.4524.914-.7691 1.455-.9501.565-.2036 1.14-.3167 1.727-.3393.609-.0226 1.083-.034 1.422-.034h6.635v-3.1896h-11.916c-.339 0-.802.0226-1.388.0679-.587.0226-1.174-.0226-1.761-.1357-.564-.1358-1.049-.39591-1.455-.78048-.406-.40718-.61-1.02927-.61-1.86627V.0336896h.474c.361 0 .835.0226212 1.422.0678634.61.045243 1.185.15835 1.727.339321.564.180972 1.049.47505 1.455.882236.406.40719.61.99534.61 1.76447v3.63074h11.442V-.0002441h5.653V13.5726ZM153.561 6.71832c0 1.19893-.576 2.10379-1.727 2.71457-1.151.58811-2.696.88221-4.637.88221h-8.463c0-.36192.056-.75779.169-1.1876.135-.45243.327-.8483.575-1.18762.271-.33933.621-.62209 1.05-.84831.429-.24883.936-.37325 1.523-.37325h5.823V3.56263h-11.408v9.46707c0 1.5835-.486 2.6693-1.456 3.2575-.496.2941-1.061.4863-1.693.5768-.631.0905-1.275.1358-1.929.1358h-.576V-.0002441h17.57c1.534 0 2.775.3053891 3.723.9161681.971.610776 1.456 1.493016 1.456 2.646706v3.15569ZM155.606 3.56263c0-1.15369.474-2.03593 1.422-2.646706.97-.610779 2.223-.9161681 3.758-.9161681h22.24c1.535 0 2.776.3053891 3.724.9161681.97.610776 1.456 1.493016 1.456 2.646706v5.76846c0 1.19891-.576 2.10381-1.727 2.71461-1.151.5881-2.697.8822-4.638.8822h-7.108v.1018c0 1.5835-.486 2.6693-1.456 3.2575-.497.2941-1.061.4863-1.693.5768-.632.0905-1.275.1358-1.929.1358h-.576v-4.0719h-7.109c-1.94 0-3.486-.2941-4.637-.8822-1.151-.6108-1.727-1.5157-1.727-2.71461V3.56263Zm19.127 5.76846h7.785V3.56263h-7.785v5.76846Zm-13.44 0h7.786V3.56263h-7.786v5.76846ZM213 13.5726c0 .6108-.135 1.1311-.406 1.5609-.271.4072-.643.7578-1.117 1.0519-.452.2714-.993.475-1.625.6108-.632.1357-1.309.2036-2.031.2036h-12.526c-.699 0-1.354-.0792-1.963-.2376-.609-.1809-1.151-.4185-1.625-.7125-.451-.3167-.812-.6787-1.083-1.0859-.248-.4298-.372-.9161-.372-1.4591V3.46083c0-.49767.124-.96141.372-1.39121.271-.45243.632-.82568 1.083-1.119764.474-.316699 1.016-.554224 1.625-.712574.609-.1583508 1.264-.2375261 1.963-.2375261h12.526c1.534 0 2.776.3053891 3.723.9161681C212.515 1.50408 213 2.37501 213 3.5287v10.0439Zm-5.653-10.00997h-11.442v9.94207h11.442V3.56263Z" fill="#2B2E34"/>
</svg>